<svg width="553" height="416" viewBox="0 0 553 416" fill="none" xmlns="http://www.w3.org/2000/svg">
<path d="M332.169 9.91602C327.255 12.3239 322.265 14.8457 317.325 17.4775C300.054 26.6799 282.485 37.6509 269.871 50.4775L268.609 51.7598L267.938 53.4287C265.082 60.5271 264.107 67.8922 263.8 75.082C263.18 89.5195 265.396 105.73 268.428 121.141L268.433 121.164L268.437 121.188C272.578 141.658 278.3 168.055 289.575 189.523L290.027 190.384L290.652 191.128C305.166 208.403 328.979 224.897 350.656 236.877C348.985 238.724 347.301 240.586 345.599 242.472L342.539 245.859L343.465 250.328C353.562 299.093 351.22 349.289 349.288 402.651C348.842 402.961 347.97 403.46 346.361 404.049C342.576 405.435 336.97 406.407 330.381 406.772C323.898 407.132 316.985 406.876 310.841 406.101C306.036 405.495 302.114 404.62 299.346 403.68C299.209 403.28 299.052 402.801 298.885 402.233C298.022 399.31 297.082 395.088 296.093 389.768C294.126 379.186 292.137 365.21 290.208 350.662C288.302 336.289 286.425 321.113 284.761 308.843C283.192 297.276 281.661 287.044 280.22 281.869L276.709 262.015L275.142 253.152L266.278 254.72L245.503 258.395L236.641 259.962L238.208 268.823L240.66 282.694C218.888 292.339 197.702 291.38 172.274 288.458C169.307 288.07 166.941 287.893 164.959 287.752C162.906 287.605 161.487 287.509 159.974 287.294C159.67 287.251 159.357 287.2 159.03 287.144C161.963 284.44 165.704 281.204 168.877 277.701C176.181 269.637 181.229 259.494 180.989 242.445L180.847 232.261L170.757 233.657L149.858 236.549L141.021 237.771L142.166 246.619C142.598 249.953 141.433 252.14 135.337 257.107C130.02 261.44 120.275 268.068 115.416 279.108L115.047 279.947L114.854 280.844L105.955 322.281L105.717 323.389L105.761 324.521C106.858 352.769 104.8 376.832 101.678 399.691C101.601 399.73 101.523 399.772 101.439 399.812C100.063 400.474 98.1216 401.159 95.6045 401.769C90.5722 402.988 83.9901 403.729 76.7002 403.735C63.9299 403.746 50.3775 401.51 40.1904 396.874C41.451 369.139 41.2037 344.773 43.9053 317.524L44.0674 315.891L43.6416 314.306C36.484 287.61 32.1187 251.529 30.6113 220.02L29.2373 191.29L13.9902 215.679C12.2128 218.522 10.6615 221.5 9.28906 224.557C9.84969 190.593 11.2495 156.278 13.668 122.701C15.091 114.562 20.7386 104.687 31.832 94.1973C42.9727 83.6631 59.0035 73.0973 79.6885 63.7334C121.03 45.0186 180.092 31.5055 253.219 32.2422L254.917 32.2588L256.504 31.6562C272.782 25.474 291.558 18.3225 311.035 13.7129C318.112 12.038 325.186 10.7264 332.169 9.91602ZM258.905 404.039C255.021 403.505 251.507 402.697 248.628 401.631C245.993 400.656 244.315 399.623 243.369 398.767C243.036 398.465 242.829 398.22 242.699 398.03L250.037 332.363L258.905 404.039ZM145.214 319.158C153.695 321.126 162.391 322.888 171.334 324.104C177.982 348.815 183.114 372.121 184.088 399.49C184.039 399.511 183.989 399.535 183.938 399.557C180.965 400.794 176.105 402.01 170.144 402.64C159.801 403.731 148.43 402.838 139.99 399.25C140.251 386.534 141.269 365.329 142.822 344.991C143.422 337.202 144.222 328.256 145.214 319.158ZM499.643 254.373C508.731 257.761 517.877 260.737 526.872 263.209C525.609 280.335 522.915 296.444 517.661 310.013C511.725 325.342 502.746 336.902 489.248 343.426C474.886 350.366 453.718 349.453 434.003 341.719C414.243 333.967 398.817 320.512 394.027 305.689C391.902 299.113 393.851 289.501 399.864 280.226C405.841 271.007 414.255 264.607 421.566 263.152H421.568C422.555 262.956 424.909 263.266 427.784 265.343C430.387 267.222 431.949 269.518 432.477 271.128C432.39 271.305 432.237 271.583 431.963 271.978C430.874 273.548 429.157 275.239 426.549 277.783C424.338 279.94 421.146 283.022 418.992 286.489C416.711 290.161 414.844 295.511 417.109 301.482L417.342 302.062C421.871 312.794 432.884 319.383 443.11 322.236C453.374 325.101 466.097 325.126 475.597 318.892L475.598 318.893C487.122 311.33 493.014 297.822 496.124 284.358C498.316 274.868 499.329 264.508 499.643 254.373ZM406.563 20.4121C428.587 17.8113 446.9 20.9494 471.538 27.1074C484.59 45.2509 495.868 70.8628 504.844 96.4961L503.196 95.6543L502.651 95.3828C497.004 92.6433 490.807 91.8591 485.056 91.9521C477.417 92.0757 469.596 93.7644 462.939 95.6113L444.833 100.636L460.097 111.595C467.394 116.834 474.876 123.621 479.826 128.812L484.711 133.933L490.84 130.393C497.867 126.334 502.63 121.974 505.357 116.817C507.476 112.813 507.979 109.003 508.082 106.039C509.401 110.05 510.664 114.038 511.864 117.975C516.889 134.46 520.765 149.755 523.376 161.545C524.682 167.442 525.663 172.417 526.31 176.193C526.634 178.084 526.865 179.628 527.014 180.81C527.088 181.399 527.137 181.865 527.166 182.216C527.192 182.531 527.197 182.681 527.197 182.705C527.193 184.235 527.197 185.792 527.207 187.373C513.832 177.554 501.757 167.078 490.179 156.494C474.848 142.48 459.897 127.798 444.51 114.987L444.509 114.986C438.835 110.263 431.475 107.175 423.896 106.993L423.873 106.992H423.851C410.777 106.745 402.732 115.121 396.756 122.563L396.387 123.022L396.081 123.525C384.072 143.291 386.126 168.42 398.689 187.97L387.458 210.214C377 206.897 365.233 201.444 354.02 194.337C340.623 185.847 328.556 175.34 320.521 163.956C319.411 160.947 318.033 156.879 316.556 152.104L316.555 152.103L315.93 150.062C312.786 139.682 309.349 126.606 306.789 113.597C304.037 99.6089 302.462 86.0896 302.862 76.7568C303.009 73.3457 303.441 70.8068 303.825 69.2822C314.445 57.9646 330.753 48.953 349.522 41.1094C368.809 33.0494 388.642 26.9758 406.563 20.4121ZM427.181 151.651C445.282 167.701 465.094 188.061 489.547 207.745C474.848 200.805 461.262 192.905 450.507 184.859L449.192 183.864C442.353 178.625 436.999 173.364 433.246 168.668C429.602 164.108 427.901 160.623 427.365 158.563L427.273 158.171L427.2 157.781C426.918 156.123 426.902 153.963 427.181 151.651Z" fill="#FF3E00" stroke="#FF3E00" stroke-width="18"/>
</svg>
